PathFileType	4	(X/Y/Z)	Kaydara	
DataRate	CameraRate	NumFrames	NumMarkers	Units	OrigDataRate	OrigDataStartFrame	OrigNumFrames	
60.00	60.00	4	74	mm	60.00	667	195	
Frame#	Time	Y_rasi			Y_rpsi			Y_lpsi			Y_fneck			Y_bneck			Y_fhead			Y_rhead			Y_rshld			Y_relbtop			Y_relbext			Y_relblow			Y_rwrext			Y_rwrtop			Y_rwrlow			Y_lshld			Y_lelbext			Y_lelblow			Y_lelbtop			Y_lwrext			Y_lwrtop			Y_lwrlow			Y_rtopleg			Y_ltopleg			Y_rkneefr			Y_rkneebk			Y_rkneeis			Y_lkneefr			Y_lknssbk			Y_lkneeis			Y_rankfr			Y_rankis			Y_rankbk			Y_lankfr			Y_lankbk			Y_lankis			Y_lhead			Y_lasi			D_rpsi			D_lpsi			D_fneck			D_bneck			D_fhead			D_rhead			D_lhead			D_rshld			D_relbtop			D_relbext			D_relblow			D_rwrext			D_rwrtop			D_rwrlow			D_lshld			D_lelbext			D_lelblow			D_lelbtop			D_lwrext			D_lwrtop			D_lwrlow			D_rtopleg			D_ltopleg			D_rkneefr			D_rkneebk			D_rkneeis			D_lkneefr			D_lknssbk			D_lkneeis			D_rankfr			D_rankis			D_rankbk			D_lankfr			D_lankbk			D_lankis			D_lasi			D_rasi			
		X1	Y1	Z1	X2	Y2	Z2	X3	Y3	Z3	X4	Y4	Z4	X5	Y5	Z5	X6	Y6	Z6	X7	Y7	Z7	X8	Y8	Z8	X9	Y9	Z9	X10	Y10	Z10	X11	Y11	Z11	X12	Y12	Z12	X13	Y13	Z13	X14	Y14	Z14	X15	Y15	Z15	X16	Y16	Z16	X17	Y17	Z17	X18	Y18	Z18	X19	Y19	Z19	X20	Y20	Z20	X21	Y21	Z21	X22	Y22	Z22	X23	Y23	Z23	X24	Y24	Z24	X25	Y25	Z25	X26	Y26	Z26	X27	Y27	Z27	X28	Y28	Z28	X29	Y29	Z29	X30	Y30	Z30	X31	Y31	Z31	X32	Y32	Z32	X33	Y33	Z33	X34	Y34	Z34	X35	Y35	Z35	X36	Y36	Z36	X37	Y37	Z37	X38	Y38	Z38	X39	Y39	Z39	X40	Y40	Z40	X41	Y41	Z41	X42	Y42	Z42	X43	Y43	Z43	X44	Y44	Z44	X45	Y45	Z45	X46	Y46	Z46	X47	Y47	Z47	X48	Y48	Z48	X49	Y49	Z49	X50	Y50	Z50	X51	Y51	Z51	X52	Y52	Z52	X53	Y53	Z53	X54	Y54	Z54	X55	Y55	Z55	X56	Y56	Z56	X57	Y57	Z57	X58	Y58	Z58	X59	Y59	Z59	X60	Y60	Z60	X61	Y61	Z61	X62	Y62	Z62	X63	Y63	Z63	X64	Y64	Z64	X65	Y65	Z65	X66	Y66	Z66	X67	Y67	Z67	X68	Y68	Z68	X69	Y69	Z69	X70	Y70	Z70	X71	Y71	Z71	X72	Y72	Z72	X73	Y73	Z73	X74	Y74	Z74	

1	11.100	-543.02322	1083.71704	-96.69561	-620.80532	1062.78770	-265.11398	-384.37271	1059.71878	-299.18959	-467.16938	1428.23380	-162.67851	-467.12849	1481.91177	-272.89574	-406.62647	1623.08548	-88.19615	-550.10876	1574.80667	-183.76680	-668.95622	1411.36063	-195.80275	-707.48550	1092.72949	-192.22288	-746.59264	1108.22746	-233.73350	-691.10603	1089.99718	-273.87562	-730.50377	829.05708	-172.46906	-742.22427	842.06367	-133.42670	-705.41252	854.17374	-112.92269	-267.35163	1385.94116	-237.67584	-234.19756	1079.03061	-325.70473	-292.30642	1066.87469	-320.17605	-235.13186	1080.36491	-255.96552	-240.08121	821.08887	-266.33556	-209.28217	828.90045	-235.31328	-238.50374	840.94193	-199.56804	-661.74614	906.09337	-203.44057	-297.87701	910.89554	-201.16840	-642.36061	407.56763	-251.66569	-634.37206	459.65130	-325.57529	-546.42193	421.36806	-256.53027	-326.78928	480.77602	-125.22193	-283.82595	493.82381	-231.30920	-398.06740	467.54524	-190.70238	-632.73514	140.31414	-322.22595	-562.24140	135.58728	-338.35449	-606.95911	139.68688	-389.83639	-276.20367	133.27231	-172.81210	-262.14464	130.42235	-241.59695	-333.89671	125.45043	-207.23186	-415.56179	1566.54648	-258.77295	-385.64148	1077.44843	-126.01814	-907.99667	1175.03883	608.66558	-1045.80620	1189.75151	496.92524	-863.15849	1607.89108	470.80387	-960.22499	1657.37823	534.63966	-813.04703	1799.59854	355.02159	-873.85208	1803.56186	523.07041	-978.35205	1790.74112	412.18582	-777.94807	1565.21118	610.89344	-749.11774	1192.81403	602.65915	-702.42851	1207.29424	649.63120	-773.50929	1193.62656	683.45032	-663.89725	914.81415	614.64264	-637.62417	924.62227	583.91369	-666.74591	930.10872	545.10025	-1097.23381	1559.05823	399.70253	-1106.46805	1186.67389	339.50176	-1082.30354	1166.64604	410.54455	-1043.05916	1195.60501	340.63869	-1036.55197	943.75107	297.53641	-1014.66690	963.78525	262.85133	-973.98003	966.78757	290.24422	-793.92914	1035.64163	605.73360	-1062.59377	1031.86295	377.83245	-801.50604	555.69645	496.01295	-812.63374	558.64750	608.05729	-913.83881	549.47315	531.46687	-970.66475	466.51890	341.71280	-1056.51825	517.49695	394.76410	-971.04942	498.43983	455.79304	-825.92270	190.99051	558.35274	-901.68114	188.29317	541.31874	-877.44308	183.65644	623.33824	-1046.47079	163.38434	404.97482	-1066.32713	163.13004	481.42986	-982.93457	162.80087	438.51913	-949.62646	1191.33743	366.24222	-787.00165	1179.16496	487.87731 
2	11.117	-544.05640	1083.89084	-96.35421	-621.03874	1062.73880	-265.07076	-384.60293	1059.65065	-299.19048	-469.15749	1428.69888	-162.96509	-466.01707	1481.42853	-273.70392	-415.72300	1624.16718	-85.36947	-551.30421	1575.10666	-191.21706	-669.08394	1411.77643	-196.40636	-707.89162	1093.49220	-190.48826	-746.80565	1108.53516	-232.23791	-691.43837	1089.79469	-272.27356	-730.11429	830.60143	-166.08315	-741.71402	844.28642	-127.26624	-704.60709	856.92436	-107.08314	-267.24186	1385.67032	-238.57006	-235.07725	1079.07761	-327.47414	-293.16385	1066.98257	-321.68800	-235.60925	1079.73145	-257.78223	-240.88890	820.32692	-272.46532	-209.92468	827.52991	-241.44650	-238.88021	838.96286	-205.44474	-662.63107	906.19492	-204.43645	-298.18493	910.84671	-200.28990	-642.55447	407.61841	-251.86152	-634.52393	459.76940	-325.74615	-546.67870	421.48048	-256.57436	-327.24514	480.82817	-124.85348	-284.26620	493.81912	-230.94555	-398.39504	467.53975	-190.38290	-632.90855	140.46541	-322.56905	-562.29359	135.69379	-338.48824	-607.02568	139.73244	-389.92752	-275.84732	133.12080	-173.06734	-262.23278	130.48204	-241.55071	-334.01184	125.45628	-207.13888	-411.88393	1566.43326	-255.53303	-385.59551	1078.62206	-123.43372	-909.77570	1175.14183	607.43706	-1048.06717	1190.22766	496.32996	-864.96483	1608.08533	468.46123	-961.87294	1657.64481	533.02460	-815.28336	1799.52698	352.60452	-875.56374	1803.93265	520.71796	-980.37270	1790.70648	410.09113	-779.45480	1565.54474	608.83381	-750.27260	1193.51791	599.16138	-703.36288	1207.70096	646.03073	-773.69484	1193.53622	680.19272	-663.99193	916.17233	605.89710	-637.78526	926.51619	575.45525	-667.07024	932.51755	537.00146	-1099.57802	1559.35257	398.59703	-1109.79263	1186.86035	339.06010	-1084.62990	1166.84509	409.68723	-1046.21689	1195.77087	339.78500	-1040.83572	943.80722	296.39965	-1019.09935	963.82935	261.63830	-978.20251	966.70181	288.84396	-795.83961	1035.73624	603.86517	-1065.08408	1032.02538	376.72958	-803.00491	555.80574	494.40228	-813.97629	558.93059	606.49677	-915.01328	549.25243	530.04913	-972.71988	466.73332	343.83526	-1058.98575	517.63081	396.50192	-973.36266	498.80753	458.35457	-826.53625	191.20935	557.58156	-902.24846	188.21575	540.76347	-877.83058	183.91525	622.67406	-1046.81320	163.17806	405.28824	-1066.87866	162.37644	481.83418	-983.43544	162.79131	439.12121	-951.79459	1191.44066	364.59633	-788.80608	1179.25560	485.83916 
3	11.133	-544.92233	1084.02084	-96.25511	-621.03966	1062.63603	-265.07874	-384.68918	1059.54308	-299.02361	-470.61420	1428.80508	-163.16616	-464.78905	1481.00708	-274.32178	-425.41771	1625.66757	-83.81144	-552.04411	1575.33707	-199.20742	-669.04572	1412.25372	-197.30022	-707.77969	1094.26193	-189.40525	-746.92833	1108.90877	-231.24149	-691.59569	1089.69048	-271.20630	-729.34837	832.08969	-159.82128	-741.26122	846.77010	-121.49708	-703.95325	859.82727	-101.69051	-267.12067	1385.35446	-238.90169	-235.62681	1079.14917	-328.73924	-293.86213	1067.04391	-322.82452	-235.88100	1079.17061	-259.18116	-241.51129	819.69849	-278.17244	-210.47783	826.27319	-247.17115	-239.48078	837.05330	-210.69754	-663.04855	906.24817	-204.70791	-298.50142	910.78751	-200.16500	-642.80533	407.58408	-251.94616	-634.72763	459.80595	-325.84435	-546.99696	421.46324	-256.44888	-327.59243	480.81753	-124.63257	-284.47577	493.84838	-230.70751	-398.64922	467.51488	-190.23581	-633.01388	140.50277	-322.61570	-562.37602	135.75544	-338.53722	-607.08187	139.77864	-389.98764	-275.88619	133.15392	-172.98597	-262.31522	130.52104	-241.48239	-334.06834	125.44496	-207.10148	-407.87651	1566.07513	-252.31325	-386.11366	1078.66203	-123.63214	-911.70631	1175.50583	606.43002	-1049.57466	1190.23949	494.76944	-867.03148	1608.22250	466.71532	-963.75771	1657.94708	531.38550	-817.42981	1799.36325	350.18665	-877.48566	1804.18137	518.39325	-982.55341	1790.69229	408.14278	-780.97862	1565.74036	606.61339	-751.38206	1193.88580	595.36346	-704.23119	1207.88879	642.29652	-774.13017	1193.44482	677.25716	-664.10225	917.39693	597.60616	-638.16132	928.27530	567.07138	-667.73399	934.71954	528.98163	-1101.87462	1559.69025	397.54593	-1113.03185	1187.15065	338.55560	-1087.23068	1167.15958	409.00192	-1049.66835	1195.92110	337.85007	-1045.17021	943.89870	295.24393	-1023.48022	963.84247	260.46267	-982.51411	966.55724	287.56145	-797.68967	1035.97977	602.22157	-1067.40807	1032.16240	375.79189	-804.27963	555.91885	492.79228	-814.98642	559.11495	604.98940	-916.40656	549.54472	529.15752	-974.56367	466.90155	345.91866	-1061.25526	517.68120	398.05630	-975.78865	499.11381	460.31109	-826.99326	191.38527	556.89613	-902.82219	188.13772	540.26806	-878.18787	184.11736	622.06730	-1047.20757	162.96425	405.61325	-1067.40929	161.79697	482.20078	-983.88664	162.79121	439.58057	-954.00047	1191.46545	362.98199	-791.28151	1179.24492	484.17854 
4	11.150	-545.52952	1084.16016	-96.41210	-619.96586	1060.93063	-261.70652	-384.70776	1059.48463	-298.76148	-472.83550	1429.24744	-163.78773	-463.19336	1480.59555	-274.87000	-435.29678	1627.09915	-82.65402	-552.46235	1575.38315	-207.43256	-668.93661	1412.73560	-198.64929	-708.09792	1095.25620	-188.60573	-746.91002	1109.24797	-230.79937	-691.67374	1089.66637	-270.58092	-728.94524	834.03900	-154.12242	-740.74638	849.61357	-116.11535	-703.53508	863.15094	-96.58469	-266.88364	1385.01923	-238.79992	-235.97767	1079.23134	-329.50336	-294.27837	1067.20955	-323.59444	-236.11662	1078.62854	-260.05970	-242.24260	819.17366	-283.34211	-211.06390	825.09972	-252.25283	-239.94204	835.31342	-215.60650	-663.35632	906.28922	-205.02960	-298.69030	910.75706	-199.63943	-643.16566	407.54623	-251.83790	-634.93015	459.78825	-325.67802	-547.43446	421.37794	-256.01902	-327.98706	480.76057	-124.39486	-284.73537	493.81500	-230.42524	-398.88206	467.49924	-190.16424	-633.11977	140.55634	-322.61532	-562.56916	135.72860	-338.40157	-607.08611	139.82062	-389.97566	-276.42380	132.89914	-172.32397	-262.34171	130.57073	-241.43764	-334.09286	125.42027	-207.01546	-404.14539	1565.92880	-247.93201	-386.65768	1078.66943	-123.67262	-912.73735	1175.76485	604.58244	-1051.17050	1190.44518	493.85040	-868.97141	1608.32855	464.53911	-965.46371	1658.17566	529.78275	-819.78615	1799.18060	347.77012	-879.30649	1804.44305	516.30692	-984.56802	1790.80200	406.22627	-782.50397	1565.89600	604.45351	-752.85515	1194.25652	592.05914	-705.34798	1208.13553	638.57704	-774.69688	1193.06396	674.18549	-664.61349	918.48145	589.29180	-638.99017	930.03021	558.84769	-668.71803	936.89735	521.05003	-1104.24591	1560.00381	396.57528	-1116.18668	1187.40005	337.95322	-1088.53737	1166.90712	407.78225	-1053.08502	1196.12198	335.98782	-1049.51080	944.05762	294.24885	-1027.96158	963.87413	259.26151	-986.58081	966.59111	286.69874	-799.34044	1036.32439	600.48656	-1069.77890	1032.21222	375.14099	-805.63858	556.08971	491.39671	-815.83710	559.40449	603.43792	-917.41974	549.25034	527.68486	-976.55190	466.90109	347.89501	-1063.59497	517.67319	399.59690	-977.60567	498.82347	461.43295	-827.43706	191.56218	556.26507	-903.40904	188.11535	539.68971	-878.53905	184.37595	621.50002	-1047.71957	162.79087	406.03001	-1067.99736	161.24031	482.46876	-984.53827	162.83983	440.07309	-956.25290	1191.51505	361.49212	-792.57324	1179.47525	481.79440 
